<svg width="60" height="60" viewBox="0 0 60 60" fill="none" xmlns="http://www.w3.org/2000/svg">
<g clip-path="url(#clip0_32_123)">
<path d="M30 60C46.5685 60 60 46.5685 60 30C60 13.4315 46.5685 0 30 0C13.4315 0 0 13.4315 0 30C0 46.5685 13.4315 60 30 60Z" fill="#FEB95F"/>
<path d="M33.39 12.01C33.39 9.79534 31.5969 8 29.385 8C27.1731 8 25.38 9.79534 25.38 12.01V47.25C25.38 49.4647 27.1731 51.26 29.385 51.26C31.5969 51.26 33.39 49.4647 33.39 47.25V12.01Z" fill="white"/>
<path d="M47.2268 36.1143C48.7928 34.5483 48.7943 32.0109 47.2303 30.4468C45.6662 28.8828 43.1288 28.8844 41.5628 30.4504L26.8055 45.2077C25.2395 46.7737 25.2379 49.3111 26.802 50.8751C28.366 52.4392 30.9034 52.4376 32.4694 50.8716L47.2268 36.1143Z" fill="white"/>
<path d="M26.747 51.1436C28.313 52.7096 30.8505 52.7112 32.4145 51.1471C33.9786 49.5831 33.977 47.0457 32.411 45.4797L17.6537 30.7224C16.0876 29.1564 13.5502 29.1548 11.9862 30.7188C10.4221 32.2829 10.4237 34.8203 11.9897 36.3863L26.747 51.1436Z" fill="white"/>
</g>
<defs>
<clipPath id="clip0_32_123">
<rect width="60" height="60" fill="white"/>
</clipPath>
</defs>
</svg>
